<?xml version="1.0" encoding="utf-8"?>
<!-- Generator: Adobe Illustrator 23.0.3, SVG Export Plug-In . SVG Version: 6.00 Build 0)  -->
<svg version="1.1" xmlns="http://www.w3.org/2000/svg" xmlns:xlink="http://www.w3.org/1999/xlink" x="0px" y="0px"
	 viewBox="0 0 1280 1280" enable-background="new 0 0 1280 1280" xml:space="preserve">
<g id="Layer_2" display="none">
	<g display="inline">
		<path fill="#FFC9BF" d="M915,1094.5c-55.69,0-109.71-10.91-160.56-32.42c-49.12-20.78-93.23-50.52-131.12-88.4
			c-37.88-37.88-67.63-82-88.4-131.12C513.41,791.71,502.5,737.69,502.5,682s10.91-109.71,32.42-160.56
			c20.78-49.12,50.52-93.23,88.4-131.12c37.88-37.88,82-67.63,131.12-88.4C805.29,280.41,859.31,269.5,915,269.5
			s109.71,10.91,160.56,32.42c49.12,20.78,93.23,50.52,131.12,88.4s67.63,82,88.4,131.12c21.51,50.85,32.42,104.88,32.42,160.56
			s-10.91,109.71-32.42,160.56c-20.78,49.12-50.52,93.23-88.4,131.12s-82,67.63-131.12,88.4
			C1024.71,1083.59,970.69,1094.5,915,1094.5z"/>
		<path fill="#FFFFFF" d="M915,270c55.62,0,109.58,10.89,160.37,32.38c49.06,20.75,93.12,50.46,130.96,88.3s67.54,81.9,88.3,130.96
			C1316.11,572.42,1327,626.38,1327,682s-10.89,109.58-32.38,160.37c-20.75,49.06-50.46,93.12-88.3,130.96s-81.9,67.54-130.96,88.3
			C1024.58,1083.11,970.62,1094,915,1094s-109.58-10.89-160.37-32.38c-49.06-20.75-93.12-50.46-130.96-88.3s-67.54-81.9-88.3-130.96
			C513.89,791.58,503,737.62,503,682s10.89-109.58,32.38-160.37c20.75-49.06,50.46-93.12,88.3-130.96s81.9-67.54,130.96-88.3
			C805.42,280.89,859.38,270,915,270 M915,269c-228.09,0-413,184.91-413,413s184.91,413,413,413s413-184.91,413-413
			S1143.09,269,915,269L915,269z"/>
	</g>
	<g display="inline">
		<circle fill="#FFC9BF" cx="1121.5" cy="682.5" r="206"/>
		<path fill="#FFFFFF" d="M1121.5,477c27.74,0,54.66,5.43,79.99,16.15c24.47,10.35,46.45,25.17,65.32,44.04
			c18.87,18.87,33.69,40.85,44.04,65.32c10.72,25.33,16.15,52.25,16.15,79.99s-5.43,54.66-16.15,79.99
			c-10.35,24.47-25.17,46.45-44.04,65.32c-18.87,18.87-40.85,33.69-65.32,44.04c-25.33,10.72-52.25,16.15-79.99,16.15
			s-54.66-5.43-79.99-16.15c-24.47-10.35-46.45-25.17-65.32-44.04c-18.87-18.87-33.69-40.85-44.04-65.32
			C921.43,737.16,916,710.24,916,682.5s5.43-54.66,16.15-79.99c10.35-24.47,25.17-46.45,44.04-65.32
			c18.87-18.87,40.85-33.69,65.32-44.04C1066.84,482.43,1093.76,477,1121.5,477 M1121.5,476C1007.45,476,915,568.45,915,682.5
			S1007.45,889,1121.5,889S1328,796.55,1328,682.5S1235.55,476,1121.5,476L1121.5,476z"/>
	</g>
	<g display="inline">
		<circle fill="#FFC9BF" cx="708.5" cy="682.5" r="206"/>
		<path fill="#FFFFFF" d="M708.5,477c27.74,0,54.66,5.43,79.99,16.15c24.47,10.35,46.45,25.17,65.32,44.04
			c18.87,18.87,33.69,40.85,44.04,65.32C908.57,627.84,914,654.76,914,682.5s-5.43,54.66-16.15,79.99
			c-10.35,24.47-25.17,46.45-44.04,65.32c-18.87,18.87-40.85,33.69-65.32,44.04C763.16,882.57,736.24,888,708.5,888
			s-54.66-5.43-79.99-16.15c-24.47-10.35-46.45-25.17-65.32-44.04c-18.87-18.87-33.69-40.85-44.04-65.32
			C508.43,737.16,503,710.24,503,682.5s5.43-54.66,16.15-79.99c10.35-24.47,25.17-46.45,44.04-65.32
			c18.87-18.87,40.85-33.69,65.32-44.04C653.84,482.43,680.76,477,708.5,477 M708.5,476C594.45,476,502,568.45,502,682.5
			S594.45,889,708.5,889S915,796.55,915,682.5S822.55,476,708.5,476L708.5,476z"/>
	</g>
</g>
<g id="Layer_1">
	<g>
		<path d="M909.5,507.38c-107.08-39.27-225.71,15.7-264.97,122.77c-39.27,107.08-157.9,162.04-264.97,122.77
			c-76.81-28.17-126.79-97.19-134.42-173.48c-23.37,182.39,81.16,363.24,261.1,429.24c208.96,76.63,440.48-30.64,517.12-239.6
			c1.7-4.64,3.31-9.29,4.83-13.94c32.54-99.7-17.26-208.46-115.04-246.38C911.94,508.29,910.72,507.83,909.5,507.38z"/>
		<path d="M383.29,724.76c44.26,16.23,92.2,14.26,134.97-5.56c42.78-19.82,75.27-55.11,91.51-99.38
			c10.99-29.96,27.53-56.89,49.16-80.03c20.88-22.34,45.6-40.22,73.45-53.12c27.86-12.91,57.47-20.21,88.02-21.69
			c31.64-1.54,62.88,3.25,92.84,14.24c29.92,10.97,56.81,27.48,79.93,49.07c6.87,6.42,13.33,13.2,19.34,20.32
			c-5.95-27.4-14.94-54.13-26.9-79.93c-20.92-45.15-49.87-85.18-86.04-118.99c-37.44-34.99-81.04-61.77-129.6-79.57
			c-48.55-17.81-99.13-25.57-150.31-23.08c-49.46,2.41-97.42,14.24-142.57,35.15c-45.15,20.92-85.18,49.87-118.99,86.04
			c-34.99,37.44-61.77,81.04-79.57,129.6l-0.03,0.09c-0.11,0.31-0.2,0.58-0.3,0.85c-0.28,0.77-0.55,1.54-0.82,2.3l-0.01,0.04
			l-0.01,0.04c-15.28,43.93-12.73,91.3,7.18,133.39C304.45,676.67,339.53,708.71,383.29,724.76z"/>
	</g>
	<path d="M2066.22,856.1c0.02-0.17,0.04-0.33,0.06-0.5c0.01-0.06,0.01-0.11,0.02-0.17C2066.28,855.66,2066.25,855.88,2066.22,856.1z
		"/>
</g>
</svg>
