<?xml version="1.0" encoding="UTF-8"?>
<svg width="30px" height="16px" viewBox="0 0 30 16" version="1.1" xmlns="http://www.w3.org/2000/svg" xmlns:xlink="http://www.w3.org/1999/xlink">
    <!-- Generator: Sketch 53.2 (72643) - https://sketchapp.com -->
    <title>test-logo</title>
    <desc>Created with Sketch.</desc>
    <g id="Subpage---Work-(full)" stroke="none" stroke-width="1" fill="none" fill-rule="evenodd">
        <g id="05-Work-default-mobile" transform="translate(-31.000000, -538.000000)" fill="#080808" fill-rule="nonzero">
            <g id="00_top">
                <g id="header">
                    <g id="test-logo" transform="translate(31.000000, 538.000000)">
                        <path d="M1.70530257e-13,0.445 L3.72,0.445 C4.05000165,0.445 4.3349988,0.51999925 4.575,0.67 C4.8150012,0.82000075 4.95999975,1.0149988 5.01,1.255 L6.57,8.23 C6.6900006,8.76000265 6.7999995,9.2749975 6.9,9.775 C7.0000005,10.2750025 7.0899996,10.7699976 7.17,11.26 C7.3100007,10.7699976 7.45749923,10.2775025 7.6125,9.7825 C7.76750078,9.28749753 7.91999925,8.7700027 8.07,8.23 L10.02,1.24 C10.0800003,1.00999885 10.2249989,0.817500775 10.455,0.6625 C10.6850012,0.507499225 10.9499985,0.43 11.25,0.43 L13.32,0.43 C13.6500017,0.43 13.9324988,0.507499225 14.1675,0.6625 C14.4025012,0.817500775 14.5499997,1.00999885 14.61,1.24 L16.47,8.23 C16.6100007,8.76000265 16.7524993,9.2749975 16.8975,9.775 C17.0425007,10.2750025 17.1799994,10.7799975 17.31,11.29 C17.3900004,10.7899975 17.4874994,10.2925025 17.6025,9.7975 C17.7175006,9.30249753 17.8399994,8.78000275 17.97,8.23 L19.62,1.255 C19.6700003,1.0149988 19.8124988,0.82000075 20.0475,0.67 C20.2825012,0.51999925 20.5499985,0.445 20.85,0.445 L24.39,0.445 L19.56,16 L15.78,16 C15.579999,16 15.4100007,15.9400006 15.27,15.82 C15.1299993,15.6999994 15.0200004,15.5000014 14.94,15.22 L12.72,7.465 C12.6199995,7.11499825 12.5250005,6.7700017 12.435,6.43 C12.3449996,6.0899983 12.2650004,5.7500017 12.195,5.41 C12.1249997,5.76000175 12.0475004,6.10749828 11.9625,6.4525 C11.8774996,6.79750173 11.7800006,7.14499825 11.67,7.495 L9.42,15.22 C9.26999925,15.7400026 8.94000255,16 8.43,16 L4.83,16 L1.70530257e-13,0.445 Z" id="w"></path>
                        <path d="M30,13.5138122 C30,13.8545137 29.9331557,14.1744921 29.7994652,14.4737569 C29.6657747,14.7730218 29.4830671,15.0354501 29.2513369,15.2610497 C29.0196067,15.4866494 28.7500015,15.6662056 28.4425134,15.7997238 C28.1350252,15.9332419 27.8074884,16 27.459893,16 C27.1212104,16 26.8048143,15.9332419 26.5106952,15.7997238 C26.2165761,15.6662056 25.9558835,15.4866494 25.7286096,15.2610497 C25.5013358,15.0354501 25.3230844,14.7730218 25.1938503,14.4737569 C25.0646161,14.1744921 25,13.8545137 25,13.5138122 C25,13.1639025 25.0646161,12.8370181 25.1938503,12.5331492 C25.3230844,12.2292802 25.5013358,11.9622479 25.7286096,11.7320442 C25.9558835,11.5018405 26.2165761,11.3222843 26.5106952,11.1933702 C26.8048143,11.0644561 27.1212104,11 27.459893,11 C27.8074884,11 28.1350252,11.0644561 28.4425134,11.1933702 C28.7500015,11.3222843 29.0196067,11.5018405 29.2513369,11.7320442 C29.4830671,11.9622479 29.6657747,12.2292802 29.7994652,12.5331492 C29.9331557,12.8370181 30,13.1639025 30,13.5138122 Z" id="Path"></path>
                    </g>
                </g>
            </g>
        </g>
    </g>
</svg>